<?xml version="1.0" encoding="utf-8"?>
<!-- Generator: Adobe Illustrator 22.0.1, SVG Export Plug-In . SVG Version: 6.00 Build 0)  -->
<svg version="1.1" xmlns="http://www.w3.org/2000/svg" xmlns:xlink="http://www.w3.org/1999/xlink" x="0px" y="0px"
	 viewBox="0 0 512 512" style="enable-background:new 0 0 512 512;" xml:space="preserve">
<style type="text/css">
	.st0{fill:#7585F0;stroke:#000000;stroke-width:20;stroke-linecap:round;stroke-linejoin:round;stroke-miterlimit:10;}
	.st1{fill:none;stroke:#000000;stroke-width:20;stroke-linecap:round;stroke-linejoin:round;stroke-miterlimit:10;}
	.st2{fill:#FFFFFF;}
	.st3{fill:#E4B75C;stroke:#000000;stroke-width:20;stroke-linecap:round;stroke-linejoin:round;stroke-miterlimit:10;}
	.st4{fill:#DE5A5A;stroke:#000000;stroke-width:20;stroke-linecap:round;stroke-linejoin:round;stroke-miterlimit:10;}
	.st5{fill:#D4F4FF;}
	.st6{fill:#D4F4FF;stroke:#000000;stroke-width:20;stroke-linecap:round;stroke-linejoin:round;stroke-miterlimit:10;}
	.st7{fill:#F2DF98;stroke:#000000;stroke-width:20;stroke-linecap:round;stroke-linejoin:round;stroke-miterlimit:10;}
	.st8{fill:#FFFFFF;stroke:#000000;stroke-width:20;stroke-linecap:round;stroke-linejoin:round;stroke-miterlimit:10;}
	.st9{fill:#87BF8C;stroke:#000000;stroke-width:20;stroke-linecap:round;stroke-linejoin:round;stroke-miterlimit:10;}
	.st10{fill:#7585F0;}
	.st11{fill:#EDD4B4;stroke:#000000;stroke-width:20;stroke-linecap:round;stroke-linejoin:round;stroke-miterlimit:10;}
	.st12{fill:#E4B75C;}
	.st13{fill:#AACF9A;stroke:#000000;stroke-width:20;stroke-linecap:round;stroke-linejoin:round;stroke-miterlimit:10;}
	.st14{fill:#E8C673;stroke:#000000;stroke-width:20;stroke-linecap:round;stroke-linejoin:round;stroke-miterlimit:10;}
	.st15{fill:#F2DF98;}
	.st16{fill:#D0524E;stroke:#000000;stroke-width:20;stroke-linecap:round;stroke-linejoin:round;stroke-miterlimit:10;}
	.st17{fill:#87BF8C;}
	.st18{fill:#AACF9A;}
	.st19{fill:#DE5A5A;}
	.st20{fill:#E8C673;}
	.st21{fill:#7ACBAA;}
	.st22{fill:#EFCDC2;}
	.st23{fill:#6B7DFA;stroke:#000000;stroke-width:20;stroke-linecap:round;stroke-linejoin:round;stroke-miterlimit:10;}
</style>
<g id="GUIDELINES">
</g>
<g id="ICON_1_">
	<g>
		<g>
			<path class="st8" d="M88,305.8V74.5c0-15.3,12.4-27.7,27.7-27.7h280.5c15.3,0,27.7,12.4,27.7,27.7v231.2"/>
			<path class="st0" d="M381.7,305.8h63V340c0,8.1-6.6,14.7-14.7,14.7H82c-8.1,0-14.7-6.6-14.7-14.7v-34.2h249"/>
			<g>
				<rect x="230" y="10" class="st7" width="52" height="36.8"/>
				<polyline class="st7" points="282,451 282,354.7 230,354.7 230,502 282,502 				"/>
			</g>
		</g>
		<g>
			<line class="st1" x1="289.3" y1="364.7" x2="397.3" y2="502"/>
			<line class="st1" x1="289.3" y1="364.7" x2="397.3" y2="502"/>
			<line class="st1" x1="222.7" y1="364.7" x2="114.7" y2="502"/>
		</g>
		<g>
			<g>
				<line class="st1" x1="220" y1="89.5" x2="221.7" y2="103.5"/>
			</g>
			<g>
				<line class="st1" x1="149.7" y1="194.9" x2="135.6" y2="196.6"/>
			</g>
			<g>
				<line class="st1" x1="289.1" y1="112" x2="280.6" y2="122.8"/>
				<line class="st1" x1="182.2" y1="247.7" x2="173.8" y2="258.4"/>
			</g>
			<g>
				<line class="st1" x1="169" y1="136" x2="158.2" y2="127.6"/>
			</g>
		</g>
		<path class="st6" d="M365.6,207.5c2-4.9,3.2-10.4,3.2-16c0-23.3-18.9-42.2-42.2-42.2c-3.7,0-7.2,0.5-10.6,1.3l0,0l0,0
			c-14.8,3.8-26.4,15.4-30.2,30.2c-4.6-4.1-10.7-6.6-17.4-6.6c-14.5,0-26.3,11.8-26.3,26.4v6.8h-3.2c-13,0-23.5,10.6-23.5,23.6
			c0,13,10.5,23.6,23.5,23.6h103.2l0,0l0,0h21.2c13,0,23.5-10.6,23.5-23.6C386.8,218.7,377.5,208.7,365.6,207.5z"/>
		<path class="st3" d="M238.9,207.4h3.2v-6.8c0-14.6,11.8-26.4,26.3-26.4c2,0,4,0.2,5.9,0.7c-5.2-21.4-25.7-36.1-48.1-33.4
			c-24.2,2.9-41.5,24.8-38.6,49c2,16.9,13.4,30.5,28.3,36.1C217.9,215.6,227.5,207.4,238.9,207.4z"/>
	</g>
</g>
</svg>
